<mxfile host="app.diagrams.net" modified="2024-02-03T02:42:20.187Z" agent="Mozilla/5.0 (Windows NT 10.0; Win64; x64) AppleWebKit/537.36 (KHTML, like Gecko) Chrome/121.0.0.0 Safari/537.36" etag="r1JFCJOrCytS6efN8ixE" version="23.1.1" type="device">
  <diagram name="PÃ¡gina-1" id="0C3VKirLSuwvMJ3S87z_">
    <mxGraphModel dx="2248" dy="2143" grid="1" gridSize="10" guides="1" tooltips="1" connect="1" arrows="1" fold="1" page="1" pageScale="1" pageWidth="827" pageHeight="1169" math="0" shadow="0">
      <root>
        <mxCell id="0" />
        <mxCell id="1" parent="0" />
        <mxCell id="WB_viZuvV2GMxETEtMUc-13" style="edgeStyle=orthogonalEdgeStyle;rounded=0;orthogonalLoop=1;jettySize=auto;html=1;exitX=0;exitY=0.5;exitDx=0;exitDy=0;entryX=1;entryY=0.5;entryDx=0;entryDy=0;" parent="1" target="WB_viZuvV2GMxETEtMUc-4" edge="1">
          <mxGeometry relative="1" as="geometry">
            <Array as="points">
              <mxPoint x="120" y="85" />
              <mxPoint x="120" y="-20" />
            </Array>
            <mxPoint x="140.00000000000023" y="85" as="sourcePoint" />
          </mxGeometry>
        </mxCell>
        <mxCell id="WB_viZuvV2GMxETEtMUc-14" style="edgeStyle=orthogonalEdgeStyle;rounded=0;orthogonalLoop=1;jettySize=auto;html=1;exitX=0;exitY=0.5;exitDx=0;exitDy=0;entryX=1;entryY=0.5;entryDx=0;entryDy=0;" parent="1" target="WB_viZuvV2GMxETEtMUc-5" edge="1">
          <mxGeometry relative="1" as="geometry">
            <mxPoint x="140.00000000000023" y="85" as="sourcePoint" />
          </mxGeometry>
        </mxCell>
        <mxCell id="WB_viZuvV2GMxETEtMUc-15" style="edgeStyle=orthogonalEdgeStyle;rounded=0;orthogonalLoop=1;jettySize=auto;html=1;exitX=0;exitY=0.5;exitDx=0;exitDy=0;" parent="1" target="WB_viZuvV2GMxETEtMUc-8" edge="1">
          <mxGeometry relative="1" as="geometry">
            <mxPoint x="140.00000000000023" y="85" as="sourcePoint" />
          </mxGeometry>
        </mxCell>
        <mxCell id="WB_viZuvV2GMxETEtMUc-16" style="edgeStyle=orthogonalEdgeStyle;rounded=0;orthogonalLoop=1;jettySize=auto;html=1;exitX=0;exitY=0.5;exitDx=0;exitDy=0;entryX=1;entryY=0.5;entryDx=0;entryDy=0;" parent="1" target="WB_viZuvV2GMxETEtMUc-6" edge="1">
          <mxGeometry relative="1" as="geometry">
            <mxPoint x="140.00000000000023" y="85" as="sourcePoint" />
          </mxGeometry>
        </mxCell>
        <mxCell id="WB_viZuvV2GMxETEtMUc-17" style="edgeStyle=orthogonalEdgeStyle;rounded=0;orthogonalLoop=1;jettySize=auto;html=1;exitX=0;exitY=0.5;exitDx=0;exitDy=0;entryX=1;entryY=0.5;entryDx=0;entryDy=0;" parent="1" target="WB_viZuvV2GMxETEtMUc-7" edge="1">
          <mxGeometry relative="1" as="geometry">
            <mxPoint x="140.00000000000023" y="85" as="sourcePoint" />
          </mxGeometry>
        </mxCell>
        <mxCell id="WB_viZuvV2GMxETEtMUc-18" style="edgeStyle=orthogonalEdgeStyle;rounded=0;orthogonalLoop=1;jettySize=auto;html=1;exitX=0.5;exitY=1;exitDx=0;exitDy=0;entryX=0.5;entryY=0;entryDx=0;entryDy=0;" parent="1" source="HQV8JVvPdLfe2JNcfyqQ-3" target="WB_viZuvV2GMxETEtMUc-10" edge="1">
          <mxGeometry relative="1" as="geometry" />
        </mxCell>
        <mxCell id="C1mRw7hAY9p0wMVjrJnd-10" style="edgeStyle=orthogonalEdgeStyle;rounded=0;orthogonalLoop=1;jettySize=auto;html=1;exitX=0;exitY=0.5;exitDx=0;exitDy=0;entryX=1;entryY=0.5;entryDx=0;entryDy=0;" parent="1" target="C1mRw7hAY9p0wMVjrJnd-9" edge="1">
          <mxGeometry relative="1" as="geometry">
            <mxPoint x="140.00000000000023" y="85" as="sourcePoint" />
          </mxGeometry>
        </mxCell>
        <mxCell id="WB_viZuvV2GMxETEtMUc-1" value="Empleados" style="rounded=0;whiteSpace=wrap;html=1;" parent="1" vertex="1">
          <mxGeometry x="140" y="65" width="120" height="40" as="geometry" />
        </mxCell>
        <mxCell id="WB_viZuvV2GMxETEtMUc-20" style="edgeStyle=orthogonalEdgeStyle;rounded=0;orthogonalLoop=1;jettySize=auto;html=1;exitX=0;exitY=0.5;exitDx=0;exitDy=0;entryX=1;entryY=0.5;entryDx=0;entryDy=0;" parent="1" source="HQV8JVvPdLfe2JNcfyqQ-14" target="WB_viZuvV2GMxETEtMUc-9" edge="1">
          <mxGeometry relative="1" as="geometry" />
        </mxCell>
        <mxCell id="C1mRw7hAY9p0wMVjrJnd-1" style="edgeStyle=orthogonalEdgeStyle;rounded=0;orthogonalLoop=1;jettySize=auto;html=1;exitX=1;exitY=0.5;exitDx=0;exitDy=0;entryX=0;entryY=0.5;entryDx=0;entryDy=0;" parent="1" source="WB_viZuvV2GMxETEtMUc-2" target="C1mRw7hAY9p0wMVjrJnd-2" edge="1">
          <mxGeometry relative="1" as="geometry">
            <mxPoint x="1060" y="90" as="targetPoint" />
          </mxGeometry>
        </mxCell>
        <mxCell id="C1mRw7hAY9p0wMVjrJnd-6" style="edgeStyle=orthogonalEdgeStyle;rounded=0;orthogonalLoop=1;jettySize=auto;html=1;exitX=1;exitY=0.5;exitDx=0;exitDy=0;entryX=0;entryY=0.5;entryDx=0;entryDy=0;" parent="1" source="WB_viZuvV2GMxETEtMUc-2" target="C1mRw7hAY9p0wMVjrJnd-5" edge="1">
          <mxGeometry relative="1" as="geometry" />
        </mxCell>
        <mxCell id="C1mRw7hAY9p0wMVjrJnd-11" style="edgeStyle=orthogonalEdgeStyle;rounded=0;orthogonalLoop=1;jettySize=auto;html=1;exitX=1;exitY=0.5;exitDx=0;exitDy=0;entryX=0;entryY=0.5;entryDx=0;entryDy=0;" parent="1" source="WB_viZuvV2GMxETEtMUc-2" target="C1mRw7hAY9p0wMVjrJnd-12" edge="1">
          <mxGeometry relative="1" as="geometry">
            <mxPoint x="1030" y="180" as="targetPoint" />
          </mxGeometry>
        </mxCell>
        <mxCell id="WB_viZuvV2GMxETEtMUc-2" value="Departamentos" style="rounded=0;whiteSpace=wrap;html=1;" parent="1" vertex="1">
          <mxGeometry x="880" y="70" width="120" height="40" as="geometry" />
        </mxCell>
        <mxCell id="C1mRw7hAY9p0wMVjrJnd-4" style="edgeStyle=orthogonalEdgeStyle;rounded=0;orthogonalLoop=1;jettySize=auto;html=1;exitX=0.5;exitY=1;exitDx=0;exitDy=0;" parent="1" source="WB_viZuvV2GMxETEtMUc-3" target="C1mRw7hAY9p0wMVjrJnd-3" edge="1">
          <mxGeometry relative="1" as="geometry" />
        </mxCell>
        <mxCell id="C1mRw7hAY9p0wMVjrJnd-14" style="edgeStyle=orthogonalEdgeStyle;rounded=0;orthogonalLoop=1;jettySize=auto;html=1;exitX=0.5;exitY=1;exitDx=0;exitDy=0;entryX=0.5;entryY=0;entryDx=0;entryDy=0;" parent="1" source="WB_viZuvV2GMxETEtMUc-3" target="C1mRw7hAY9p0wMVjrJnd-13" edge="1">
          <mxGeometry relative="1" as="geometry" />
        </mxCell>
        <mxCell id="WB_viZuvV2GMxETEtMUc-3" value="Proyectos" style="rounded=0;whiteSpace=wrap;html=1;" parent="1" vertex="1">
          <mxGeometry x="140" y="559.69" width="120" height="40" as="geometry" />
        </mxCell>
        <mxCell id="WB_viZuvV2GMxETEtMUc-4" value="nombre" style="ellipse;whiteSpace=wrap;html=1;" parent="1" vertex="1">
          <mxGeometry x="10" y="-45" width="90" height="50" as="geometry" />
        </mxCell>
        <mxCell id="WB_viZuvV2GMxETEtMUc-5" value="apellido" style="ellipse;whiteSpace=wrap;html=1;" parent="1" vertex="1">
          <mxGeometry x="10" y="15" width="90" height="50" as="geometry" />
        </mxCell>
        <mxCell id="WB_viZuvV2GMxETEtMUc-6" value="cargo" style="ellipse;whiteSpace=wrap;html=1;" parent="1" vertex="1">
          <mxGeometry x="10" y="135" width="90" height="50" as="geometry" />
        </mxCell>
        <mxCell id="WB_viZuvV2GMxETEtMUc-7" value="salario" style="ellipse;whiteSpace=wrap;html=1;" parent="1" vertex="1">
          <mxGeometry x="10" y="195" width="90" height="50" as="geometry" />
        </mxCell>
        <mxCell id="WB_viZuvV2GMxETEtMUc-8" value="fecha_inicio" style="ellipse;whiteSpace=wrap;html=1;" parent="1" vertex="1">
          <mxGeometry x="10" y="75" width="90" height="50" as="geometry" />
        </mxCell>
        <mxCell id="HQV8JVvPdLfe2JNcfyqQ-34" style="edgeStyle=orthogonalEdgeStyle;rounded=0;orthogonalLoop=1;jettySize=auto;html=1;entryX=1;entryY=0.5;entryDx=0;entryDy=0;" edge="1" parent="1" source="WB_viZuvV2GMxETEtMUc-9" target="WB_viZuvV2GMxETEtMUc-1">
          <mxGeometry relative="1" as="geometry" />
        </mxCell>
        <mxCell id="WB_viZuvV2GMxETEtMUc-9" value="Tiene" style="rhombus;whiteSpace=wrap;html=1;" parent="1" vertex="1">
          <mxGeometry x="343.5" y="50" width="70" height="80" as="geometry" />
        </mxCell>
        <mxCell id="WB_viZuvV2GMxETEtMUc-19" style="edgeStyle=orthogonalEdgeStyle;rounded=0;orthogonalLoop=1;jettySize=auto;html=1;exitX=0.5;exitY=1;exitDx=0;exitDy=0;entryX=0.5;entryY=0;entryDx=0;entryDy=0;" parent="1" source="WB_viZuvV2GMxETEtMUc-10" target="WB_viZuvV2GMxETEtMUc-3" edge="1">
          <mxGeometry relative="1" as="geometry" />
        </mxCell>
        <mxCell id="WB_viZuvV2GMxETEtMUc-10" value="Tiene" style="rhombus;whiteSpace=wrap;html=1;" parent="1" vertex="1">
          <mxGeometry x="160" y="429.69" width="80" height="80" as="geometry" />
        </mxCell>
        <mxCell id="C1mRw7hAY9p0wMVjrJnd-2" value="nombre_departamento" style="ellipse;whiteSpace=wrap;html=1;" parent="1" vertex="1">
          <mxGeometry x="1060" y="60" width="140" height="60" as="geometry" />
        </mxCell>
        <mxCell id="C1mRw7hAY9p0wMVjrJnd-3" value="nombre_proyecto" style="ellipse;whiteSpace=wrap;html=1;" parent="1" vertex="1">
          <mxGeometry x="60" y="679.69" width="140" height="60" as="geometry" />
        </mxCell>
        <mxCell id="C1mRw7hAY9p0wMVjrJnd-5" value="id_empleado" style="ellipse;whiteSpace=wrap;html=1;" parent="1" vertex="1">
          <mxGeometry x="1060" y="-10" width="140" height="60" as="geometry" />
        </mxCell>
        <mxCell id="C1mRw7hAY9p0wMVjrJnd-9" value="&lt;u&gt;id_empleado&lt;/u&gt;" style="ellipse;whiteSpace=wrap;html=1;" parent="1" vertex="1">
          <mxGeometry x="10" y="-105" width="90" height="50" as="geometry" />
        </mxCell>
        <mxCell id="C1mRw7hAY9p0wMVjrJnd-12" value="&lt;u&gt;id_departamento&lt;/u&gt;" style="ellipse;whiteSpace=wrap;html=1;" parent="1" vertex="1">
          <mxGeometry x="1060" y="125" width="140" height="60" as="geometry" />
        </mxCell>
        <mxCell id="C1mRw7hAY9p0wMVjrJnd-13" value="&lt;u&gt;id_proyecto&lt;/u&gt;" style="ellipse;whiteSpace=wrap;html=1;" parent="1" vertex="1">
          <mxGeometry x="200" y="679.69" width="140" height="60" as="geometry" />
        </mxCell>
        <mxCell id="HQV8JVvPdLfe2JNcfyqQ-26" style="edgeStyle=orthogonalEdgeStyle;rounded=0;orthogonalLoop=1;jettySize=auto;html=1;entryX=0.5;entryY=1;entryDx=0;entryDy=0;" edge="1" parent="1" source="HQV8JVvPdLfe2JNcfyqQ-1" target="WB_viZuvV2GMxETEtMUc-1">
          <mxGeometry relative="1" as="geometry" />
        </mxCell>
        <mxCell id="HQV8JVvPdLfe2JNcfyqQ-1" value="Tiene" style="rhombus;whiteSpace=wrap;html=1;" vertex="1" parent="1">
          <mxGeometry x="160" y="210" width="80" height="80" as="geometry" />
        </mxCell>
        <mxCell id="HQV8JVvPdLfe2JNcfyqQ-4" value="&lt;u&gt;id_empleado_proy&lt;/u&gt;" style="ellipse;whiteSpace=wrap;html=1;" vertex="1" parent="1">
          <mxGeometry x="350" y="280" width="140" height="60" as="geometry" />
        </mxCell>
        <mxCell id="HQV8JVvPdLfe2JNcfyqQ-5" value="id_proyecto" style="ellipse;whiteSpace=wrap;html=1;" vertex="1" parent="1">
          <mxGeometry x="350" y="400" width="140" height="60" as="geometry" />
        </mxCell>
        <mxCell id="HQV8JVvPdLfe2JNcfyqQ-6" value="id_empleado" style="ellipse;whiteSpace=wrap;html=1;" vertex="1" parent="1">
          <mxGeometry x="350" y="340" width="140" height="60" as="geometry" />
        </mxCell>
        <mxCell id="HQV8JVvPdLfe2JNcfyqQ-25" style="edgeStyle=orthogonalEdgeStyle;rounded=0;orthogonalLoop=1;jettySize=auto;html=1;entryX=0.5;entryY=1;entryDx=0;entryDy=0;" edge="1" parent="1" source="HQV8JVvPdLfe2JNcfyqQ-3" target="HQV8JVvPdLfe2JNcfyqQ-1">
          <mxGeometry relative="1" as="geometry" />
        </mxCell>
        <mxCell id="HQV8JVvPdLfe2JNcfyqQ-3" value="Empleado_Proy" style="rounded=0;whiteSpace=wrap;html=1;" vertex="1" parent="1">
          <mxGeometry x="140" y="350" width="120" height="40" as="geometry" />
        </mxCell>
        <mxCell id="HQV8JVvPdLfe2JNcfyqQ-8" value="" style="endArrow=none;html=1;rounded=0;exitX=1;exitY=0.5;exitDx=0;exitDy=0;entryX=0;entryY=0.5;entryDx=0;entryDy=0;" edge="1" parent="1" source="HQV8JVvPdLfe2JNcfyqQ-3" target="HQV8JVvPdLfe2JNcfyqQ-6">
          <mxGeometry width="50" height="50" relative="1" as="geometry">
            <mxPoint x="410" y="320" as="sourcePoint" />
            <mxPoint x="460" y="270" as="targetPoint" />
          </mxGeometry>
        </mxCell>
        <mxCell id="HQV8JVvPdLfe2JNcfyqQ-9" value="" style="endArrow=none;html=1;rounded=0;" edge="1" parent="1">
          <mxGeometry width="50" height="50" relative="1" as="geometry">
            <mxPoint x="320" y="300" as="sourcePoint" />
            <mxPoint x="320" y="430" as="targetPoint" />
          </mxGeometry>
        </mxCell>
        <mxCell id="HQV8JVvPdLfe2JNcfyqQ-10" value="" style="endArrow=none;html=1;rounded=0;exitX=1;exitY=0.5;exitDx=0;exitDy=0;" edge="1" parent="1">
          <mxGeometry width="50" height="50" relative="1" as="geometry">
            <mxPoint x="320" y="299.65999999999997" as="sourcePoint" />
            <mxPoint x="350" y="300" as="targetPoint" />
          </mxGeometry>
        </mxCell>
        <mxCell id="HQV8JVvPdLfe2JNcfyqQ-11" value="" style="endArrow=none;html=1;rounded=0;exitX=1;exitY=0.5;exitDx=0;exitDy=0;entryX=0;entryY=0.5;entryDx=0;entryDy=0;" edge="1" parent="1">
          <mxGeometry width="50" height="50" relative="1" as="geometry">
            <mxPoint x="320" y="428.99999999999994" as="sourcePoint" />
            <mxPoint x="350" y="429.69" as="targetPoint" />
          </mxGeometry>
        </mxCell>
        <mxCell id="HQV8JVvPdLfe2JNcfyqQ-12" value="N:M" style="text;html=1;strokeColor=none;fillColor=none;align=center;verticalAlign=middle;whiteSpace=wrap;rounded=0;" vertex="1" parent="1">
          <mxGeometry x="260" y="40" width="60" height="30" as="geometry" />
        </mxCell>
        <mxCell id="HQV8JVvPdLfe2JNcfyqQ-13" value="N:M" style="text;html=1;strokeColor=none;fillColor=none;align=center;verticalAlign=middle;whiteSpace=wrap;rounded=0;" vertex="1" parent="1">
          <mxGeometry x="210" y="519.69" width="60" height="30" as="geometry" />
        </mxCell>
        <mxCell id="HQV8JVvPdLfe2JNcfyqQ-21" style="edgeStyle=orthogonalEdgeStyle;rounded=0;orthogonalLoop=1;jettySize=auto;html=1;entryX=0;entryY=0.5;entryDx=0;entryDy=0;" edge="1" parent="1" source="HQV8JVvPdLfe2JNcfyqQ-14" target="HQV8JVvPdLfe2JNcfyqQ-17">
          <mxGeometry relative="1" as="geometry" />
        </mxCell>
        <mxCell id="HQV8JVvPdLfe2JNcfyqQ-14" value="Empleado_Depto" style="rounded=0;whiteSpace=wrap;html=1;" vertex="1" parent="1">
          <mxGeometry x="490" y="70" width="120" height="40" as="geometry" />
        </mxCell>
        <mxCell id="HQV8JVvPdLfe2JNcfyqQ-22" style="edgeStyle=orthogonalEdgeStyle;rounded=0;orthogonalLoop=1;jettySize=auto;html=1;entryX=0;entryY=0.5;entryDx=0;entryDy=0;" edge="1" parent="1" source="HQV8JVvPdLfe2JNcfyqQ-17" target="WB_viZuvV2GMxETEtMUc-2">
          <mxGeometry relative="1" as="geometry" />
        </mxCell>
        <mxCell id="HQV8JVvPdLfe2JNcfyqQ-17" value="Tiene" style="rhombus;whiteSpace=wrap;html=1;" vertex="1" parent="1">
          <mxGeometry x="690" y="50" width="70" height="80" as="geometry" />
        </mxCell>
        <mxCell id="HQV8JVvPdLfe2JNcfyqQ-23" value="N:M" style="text;html=1;strokeColor=none;fillColor=none;align=center;verticalAlign=middle;whiteSpace=wrap;rounded=0;" vertex="1" parent="1">
          <mxGeometry x="210" y="115" width="60" height="30" as="geometry" />
        </mxCell>
        <mxCell id="HQV8JVvPdLfe2JNcfyqQ-24" value="N:M" style="text;html=1;strokeColor=none;fillColor=none;align=center;verticalAlign=middle;whiteSpace=wrap;rounded=0;" vertex="1" parent="1">
          <mxGeometry x="820" y="50" width="60" height="30" as="geometry" />
        </mxCell>
        <mxCell id="HQV8JVvPdLfe2JNcfyqQ-27" value="&lt;u&gt;id_empleado_depto&lt;/u&gt;" style="ellipse;whiteSpace=wrap;html=1;" vertex="1" parent="1">
          <mxGeometry x="330" y="-105" width="140" height="60" as="geometry" />
        </mxCell>
        <mxCell id="HQV8JVvPdLfe2JNcfyqQ-28" value="id_empleado" style="ellipse;whiteSpace=wrap;html=1;" vertex="1" parent="1">
          <mxGeometry x="480" y="-105" width="140" height="60" as="geometry" />
        </mxCell>
        <mxCell id="HQV8JVvPdLfe2JNcfyqQ-29" value="id_departamento" style="ellipse;whiteSpace=wrap;html=1;" vertex="1" parent="1">
          <mxGeometry x="630" y="-105" width="140" height="60" as="geometry" />
        </mxCell>
        <mxCell id="HQV8JVvPdLfe2JNcfyqQ-30" value="" style="endArrow=none;html=1;rounded=0;exitX=0.5;exitY=0;exitDx=0;exitDy=0;entryX=0.5;entryY=1;entryDx=0;entryDy=0;" edge="1" parent="1" source="HQV8JVvPdLfe2JNcfyqQ-14" target="HQV8JVvPdLfe2JNcfyqQ-28">
          <mxGeometry width="50" height="50" relative="1" as="geometry">
            <mxPoint x="500" y="40" as="sourcePoint" />
            <mxPoint x="550" y="-10" as="targetPoint" />
          </mxGeometry>
        </mxCell>
        <mxCell id="HQV8JVvPdLfe2JNcfyqQ-31" value="" style="endArrow=none;html=1;rounded=0;" edge="1" parent="1">
          <mxGeometry width="50" height="50" relative="1" as="geometry">
            <mxPoint x="400" y="-10" as="sourcePoint" />
            <mxPoint x="399.58" y="-45" as="targetPoint" />
          </mxGeometry>
        </mxCell>
        <mxCell id="HQV8JVvPdLfe2JNcfyqQ-32" value="" style="endArrow=none;html=1;rounded=0;" edge="1" parent="1">
          <mxGeometry width="50" height="50" relative="1" as="geometry">
            <mxPoint x="700" y="-10" as="sourcePoint" />
            <mxPoint x="699.5799999999999" y="-45" as="targetPoint" />
          </mxGeometry>
        </mxCell>
        <mxCell id="HQV8JVvPdLfe2JNcfyqQ-33" value="" style="endArrow=none;html=1;rounded=0;entryX=0.5;entryY=1;entryDx=0;entryDy=0;" edge="1" parent="1">
          <mxGeometry width="50" height="50" relative="1" as="geometry">
            <mxPoint x="700" y="-10" as="sourcePoint" />
            <mxPoint x="400" y="-10" as="targetPoint" />
          </mxGeometry>
        </mxCell>
      </root>
    </mxGraphModel>
  </diagram>
</mxfile>
